<svg width="16" height="16" viewBox="0 0 16 16" fill="none" xmlns="http://www.w3.org/2000/svg">
<path fill-rule="evenodd" clip-rule="evenodd" d="M11.2164 12.4627C10.0938 13.3225 8.68989 13.8333 7.16666 13.8333C3.48477 13.8333 0.5 10.8486 0.5 7.16666C0.5 3.48477 3.48477 0.5 7.16666 0.5C10.8486 0.5 13.8333 3.48477 13.8333 7.16666C13.8333 8.68989 13.3225 10.0938 12.4627 11.2164L15.5 14.2537L14.2537 15.5L11.2164 12.4627ZM12.1667 7.16666C12.1667 9.92808 9.92809 12.1667 7.16666 12.1667C4.40524 12.1667 2.16667 9.92808 2.16667 7.16666C2.16667 4.40524 4.40524 2.16666 7.16666 2.16666C9.92809 2.16666 12.1667 4.40524 12.1667 7.16666Z" fill="#A2A8C1"/>
</svg>
