<svg width="28" height="28" viewBox="0 0 28 28" fill="none" xmlns="http://www.w3.org/2000/svg">
<path fill-rule="evenodd" clip-rule="evenodd" d="M4 0C1.79086 0 0 1.79086 0 4V24C0 26.2091 1.79086 28 4 28H24C26.2091 28 28 26.2091 28 24V4C28 1.79086 26.2091 0 24 0H4ZM22.5236 11.7049C22.7339 11.7332 22.9084 11.8706 22.973 12.0589C23.0381 12.2472 22.9833 12.4535 22.8314 12.5919L18.8197 16.2402L19.7677 21.3914C19.8032 21.5863 19.7174 21.7832 19.5459 21.9C19.3747 22.0172 19.1464 22.0326 18.9588 21.9396L14.0007 19.5063L9.0417 21.9396C8.85358 22.0306 8.62626 22.0147 8.45494 21.8984C8.28362 21.7822 8.19788 21.5858 8.23363 21.3914L9.18089 16.2402L5.16916 12.5919C5.01682 12.454 4.96175 12.2477 5.02705 12.0595C5.09234 11.8714 5.26672 11.734 5.477 11.7049L11.0222 10.9527L13.5013 6.26437C13.6879 5.91187 14.3126 5.91187 14.4993 6.26437L16.98 10.9527L22.5236 11.7049Z" fill="#current"/>
</svg>
